<svg width="40" height="16" viewBox="0 0 40 16" fill="none" xmlns="http://www.w3.org/2000/svg">
<path fill-rule="evenodd" clip-rule="evenodd" d="M32.5073 4.67616C33.1404 3.88981 34.1227 3.23792 35.2953 3.23792C37.928 3.23792 40.0018 5.42712 40.0001 8.1284C40.0001 10.9429 37.9158 13.026 35.4151 13.026C34.0856 13.026 33.068 12.3423 32.696 11.7719H32.6606V15.906C32.6606 15.931 32.6508 15.9548 32.6332 15.9724C32.6157 15.99 32.592 15.9999 32.5671 15.9999H30.2235C30.1985 15.9999 30.1745 15.9902 30.1567 15.9726C30.139 15.955 30.1286 15.9312 30.1282 15.906V3.33024C30.1282 3.30492 30.1382 3.28054 30.1562 3.26261C30.174 3.24468 30.1982 3.23462 30.2235 3.23462H32.4137C32.4388 3.23509 32.4624 3.24531 32.4799 3.26324C32.4975 3.28117 32.5072 3.30523 32.5072 3.33024V4.67616H32.5073ZM35.0952 10.6292C34.9009 10.6353 34.7055 10.6186 34.5131 10.5787C34.0289 10.478 33.5858 10.2347 33.2401 9.87976C32.8945 9.5248 32.6622 9.07438 32.5728 8.58605C32.5469 8.44577 32.5335 8.30407 32.5319 8.16284C32.5302 8.00447 32.5433 7.84547 32.5718 7.6882C32.6603 7.20019 32.8914 6.74977 33.2357 6.39434C33.58 6.03891 34.022 5.79451 34.5052 5.69244C34.6988 5.65155 34.8953 5.63425 35.0908 5.64022C35.4087 5.64416 35.7226 5.71037 36.0152 5.83524C36.3116 5.96184 36.5803 6.14601 36.8056 6.37751C37.0308 6.60885 37.2082 6.88266 37.3277 7.1832C37.447 7.48375 37.5058 7.80505 37.5011 8.12871C37.5063 8.45285 37.4476 8.77509 37.3284 9.07642C37.2093 9.37775 37.032 9.65251 36.8069 9.88495C36.5817 10.1174 36.313 10.3028 36.0165 10.4305C35.7253 10.5557 35.4123 10.6233 35.0952 10.6292Z" fill="#111111"/>
<path d="M17.2926 5.11883C16.7511 3.97815 15.7248 3.24134 14.1783 3.24134C13.7036 3.24968 13.2371 3.36732 12.815 3.58545C12.3927 3.80343 12.026 4.11608 11.7431 4.49888L11.6867 4.56792V0.0973508C11.6867 0.0715585 11.6765 0.0467092 11.6584 0.0284659C11.6402 0.0102225 11.6155 0 11.5898 0H9.40306C9.37769 0.000471811 9.35343 0.0110109 9.33558 0.029097C9.31773 0.0473404 9.30786 0.0718731 9.30786 0.0973508V12.9212C9.30786 12.9465 9.31788 12.9709 9.33573 12.9888C9.35358 13.0067 9.37785 13.0168 9.40306 13.0168H11.7448C11.7702 13.0168 11.7946 13.0067 11.8128 12.989C11.8309 12.971 11.8412 12.9468 11.8417 12.9212V7.45335C11.8417 6.39052 12.5471 5.63783 13.6757 5.63783C14.9101 5.63783 15.2222 6.65804 15.2222 7.69775V12.9212C15.2222 12.9465 15.2322 12.9709 15.25 12.9888C15.2679 13.0067 15.2922 13.0168 15.3174 13.0168H17.6538C17.6793 13.0168 17.7037 13.0067 17.7217 12.989C17.7399 12.971 17.7504 12.9468 17.7509 12.9212V7.38604C17.7509 7.19653 17.7509 7.01048 17.7261 6.82994C17.6862 6.23781 17.5392 5.65796 17.2926 5.11883Z" fill="#111111"/>
<path d="M5.59935 7.01943C5.59935 7.01943 4.40734 6.73776 3.96815 6.62453C3.52911 6.51113 2.76189 6.2702 2.76189 5.68751C2.76189 5.10482 3.38083 4.91877 4.0087 4.91877C4.63657 4.91877 5.33473 5.07117 5.38938 5.7707C5.39157 5.79587 5.40316 5.8193 5.42179 5.83644C5.44042 5.85343 5.46469 5.86286 5.4899 5.86286L7.79813 5.85406C7.81175 5.85406 7.82522 5.85138 7.83759 5.84588C7.85011 5.84037 7.86123 5.83251 7.87047 5.8226C7.87971 5.8127 7.88691 5.8009 7.89145 5.788C7.89599 5.77511 7.89787 5.76143 7.89677 5.7479C7.75398 3.509 5.79835 2.7085 3.99429 2.7085C1.85532 2.7085 0.291135 4.1255 0.291135 5.68767C0.291135 6.82835 0.612114 7.8981 3.13548 8.64215C3.57812 8.77142 4.17937 8.9397 4.70483 9.08675C5.33614 9.26384 5.67654 9.53135 5.67654 9.95284C5.67654 10.4416 4.97117 10.7818 4.27817 10.7818C3.27483 10.7818 2.56241 10.4081 2.50417 9.73675C2.50119 9.71221 2.48929 9.68957 2.47066 9.67321C2.45219 9.65686 2.42823 9.64805 2.40365 9.64821L0.100583 9.6589C0.0871177 9.6589 0.0736523 9.66157 0.0612829 9.66692C0.0489134 9.67227 0.0376403 9.67997 0.0282457 9.68972C0.0188512 9.69947 0.0114921 9.71095 0.0066383 9.72369C0.00178447 9.73643 -0.000407555 9.7498 6.21702e-05 9.76348C0.105907 11.8766 2.13731 13.0155 4.03125 13.0155C6.85273 13.0155 8.12772 11.4214 8.12772 9.9283C8.13148 9.2264 7.97115 7.62885 5.59935 7.01943Z" fill="#111111"/>
<path d="M23.1927 2.6853C21.0079 2.6853 19.9181 3.43108 19.0435 4.02792L19.0169 4.04569C18.9718 4.07667 18.94 4.1237 18.9279 4.17717C18.9159 4.23064 18.9245 4.28679 18.9516 4.33444L19.8157 5.8293C19.832 5.85729 19.8541 5.88135 19.8807 5.89959C19.9073 5.91799 19.9375 5.93026 19.9692 5.93545C20.0003 5.94111 20.0321 5.9397 20.0628 5.93152C20.0933 5.92318 20.1215 5.90825 20.1455 5.88764L20.2144 5.83103C20.6639 5.452 21.3852 4.94544 23.1309 4.80719C24.1026 4.72935 24.942 4.98428 25.5608 5.56524C26.2416 6.19574 26.649 7.21422 26.649 8.28947C26.649 10.2679 25.4886 11.5113 23.6247 11.5362C22.0887 11.5274 21.0572 10.7232 21.0572 9.53458C21.0572 8.90408 21.3411 8.49314 21.8947 8.08219C21.937 8.05184 21.9669 8.00717 21.979 7.95638C21.9909 7.90558 21.9843 7.85211 21.96 7.80603L21.184 6.3324C21.1698 6.30598 21.1505 6.28271 21.127 6.26383C21.1039 6.24496 21.0769 6.23096 21.0483 6.22247C21.019 6.21366 20.9882 6.21115 20.9578 6.21524C20.9274 6.21917 20.8981 6.22955 20.872 6.24559C20.0009 6.76458 18.9322 7.71387 18.9904 9.53836C19.0609 11.8605 20.9831 13.6335 23.4818 13.706H23.607H23.7782C26.7478 13.6087 28.8921 11.3946 28.8921 8.39233C28.8921 5.63617 26.8923 2.6853 23.1927 2.6853Z" fill="#111111"/>
</svg>
