<svg width="15" height="18" viewBox="0 0 15 18" fill="none" xmlns="http://www.w3.org/2000/svg">
<path d="M7.44117 17.5C11.2412 17.5 14.3828 14.6667 14.8745 11C14.9495 10.4667 14.4745 9.99167 13.9412 10.0667C10.2745 10.5583 7.44117 13.7 7.44117 17.5ZM2.10783 7.70833C2.10783 8.85833 3.04117 9.79167 4.19117 9.79167C4.63283 9.79167 5.03283 9.65833 5.3745 9.425L5.35783 9.58333C5.35783 10.7333 6.29117 11.6667 7.44117 11.6667C8.59117 11.6667 9.5245 10.7333 9.5245 9.58333L9.50783 9.425C9.84117 9.65833 10.2495 9.79167 10.6912 9.79167C11.8412 9.79167 12.7745 8.85833 12.7745 7.70833C12.7745 6.875 12.2828 6.16667 11.5828 5.83333C12.2828 5.5 12.7745 4.79167 12.7745 3.95833C12.7745 2.80833 11.8412 1.875 10.6912 1.875C10.2495 1.875 9.8495 2.00833 9.50783 2.24167L9.5245 2.08333C9.5245 0.933333 8.59117 0 7.44117 0C6.29117 0 5.35783 0.933333 5.35783 2.08333L5.3745 2.24167C5.04117 2.00833 4.63283 1.875 4.19117 1.875C3.04117 1.875 2.10783 2.80833 2.10783 3.95833C2.10783 4.79167 2.5995 5.5 3.2995 5.83333C2.5995 6.16667 2.10783 6.875 2.10783 7.70833ZM7.44117 3.75C8.59117 3.75 9.5245 4.68333 9.5245 5.83333C9.5245 6.98333 8.59117 7.91667 7.44117 7.91667C6.29117 7.91667 5.35783 6.98333 5.35783 5.83333C5.35783 4.68333 6.29117 3.75 7.44117 3.75ZM0.00783389 11C0.499501 14.6667 3.64117 17.5 7.44117 17.5C7.44117 13.7 4.60783 10.5583 0.941167 10.0667C0.407834 9.99167 -0.0671661 10.4667 0.00783389 11Z" fill="#111111"/>
</svg>
