<svg width="17" height="17" viewBox="0 0 17 17" fill="none" xmlns="http://www.w3.org/2000/svg">
<path d="M1.57253 7.89722V11.3668C1.57253 14.8363 2.96343 16.2272 6.43298 16.2272H10.598C14.0675 16.2272 15.4584 14.8363 15.4584 11.3668V7.89722" stroke="#111111" stroke-width="1.4" stroke-linecap="round" stroke-linejoin="round"/>
<path d="M8.51935 8.49998C9.93344 8.49998 10.9766 7.34861 10.8375 5.93452L10.3275 0.772705H6.71889L6.20116 5.93452C6.06207 7.34861 7.10525 8.49998 8.51935 8.49998Z" stroke="#111111" stroke-width="1.4" stroke-linecap="round" stroke-linejoin="round"/>
<path d="M13.3953 8.49998C14.9562 8.49998 16.0998 7.23271 15.9453 5.67952L15.7289 3.55452C15.4507 1.54543 14.678 0.772705 12.6534 0.772705H10.2966L10.8375 6.18952C10.9689 7.46452 12.1203 8.49998 13.3953 8.49998Z" stroke="#111111" stroke-width="1.4" stroke-linecap="round" stroke-linejoin="round"/>
<path d="M3.60479 8.49998C4.87979 8.49998 6.03116 7.46452 6.15479 6.18952L6.32479 4.4818L6.6957 0.772705H4.33888C2.31434 0.772705 1.54161 1.54543 1.26343 3.55452L1.05479 5.67952C0.900247 7.23271 2.04388 8.49998 3.60479 8.49998Z" stroke="#111111" stroke-width="1.4" stroke-linecap="round" stroke-linejoin="round"/>
<path d="M8.51934 12.3635C7.22889 12.3635 6.58752 13.0049 6.58752 14.2953V16.2272H10.4512V14.2953C10.4512 13.0049 9.8098 12.3635 8.51934 12.3635Z" stroke="#111111" stroke-width="1.4" stroke-linecap="round" stroke-linejoin="round"/>
</svg>
